<?xml version="1.0" encoding="UTF-8" standalone="no"?>
<!-- Created with Inkscape (http://www.inkscape.org/) -->

<svg
   width="500"
   height="500"
   viewBox="0 0 132.29166 132.29167"
   version="1.1"
   id="svg791"
   inkscape:version="1.2.2 (732a01da63, 2022-12-09)"
   sodipodi:docname="logo-square.svg"
   xmlns:inkscape="http://www.inkscape.org/namespaces/inkscape"
   xmlns:sodipodi="http://sodipodi.sourceforge.net/DTD/sodipodi-0.dtd"
   xmlns="http://www.w3.org/2000/svg"
   xmlns:svg="http://www.w3.org/2000/svg">
  <sodipodi:namedview
     id="namedview793"
     pagecolor="#505050"
     bordercolor="#ffffff"
     borderopacity="1"
     inkscape:showpageshadow="0"
     inkscape:pageopacity="0"
     inkscape:pagecheckerboard="1"
     inkscape:deskcolor="#505050"
     inkscape:document-units="mm"
     showgrid="false"
     inkscape:zoom="1.5625561"
     inkscape:cx="265.59046"
     inkscape:cy="272.63021"
     inkscape:window-width="1857"
     inkscape:window-height="1057"
     inkscape:window-x="-8"
     inkscape:window-y="-8"
     inkscape:window-maximized="1"
     inkscape:current-layer="layer1" />
  <defs
     id="defs788" />
  <g
     inkscape:label="Layer 1"
     inkscape:groupmode="layer"
     id="layer1">
    <path
       style="color:#000000;fill:#000000;stroke-width:0.442186;stroke-linecap:round;-inkscape-stroke:none;paint-order:fill markers stroke"
       d="m 24.585839,31.199496 c -2.83974,0 -5.038019,0.386018 -6.782208,1.30065 -1.744189,0.914632 -2.92391,2.416264 -3.542673,4.108361 -1.237526,3.384196 -0.791561,7.466122 -0.785054,12.421813 0.0057,4.373412 0.08375,7.365471 -0.08982,9.381779 -0.173567,2.016309 -0.497887,2.894911 -1.303241,3.759448 -2.002045,2.149167 -3.3578535,2.710983 -3.3578535,2.710983 a 1.6977749,1.6977749 0 0 0 -0.8835093,1.582201 1.6977749,1.6977749 0 0 0 0.8835093,1.581333 c 0,0 1.3558085,0.561821 3.3578535,2.710984 0.805354,0.864536 1.129674,1.743139 1.303241,3.759447 0.173567,2.016308 0.09556,5.007505 0.08982,9.380919 -0.0065,4.95569 -0.452472,9.038482 0.785054,12.422676 0.618763,1.692097 1.798484,3.193727 3.542673,4.10836 1.744189,0.91463 3.942469,1.30065 6.782208,1.30065 a 1.6977749,1.6977749 0 0 0 1.697927,-1.69793 1.6977749,1.6977749 0 0 0 -1.697927,-1.697924 c -2.518923,0 -4.177751,-0.373232 -5.205191,-0.91201 -1.02744,-0.538777 -1.533936,-1.184162 -1.930248,-2.267934 -0.792623,-2.167541 -0.586203,-6.151384 -0.579506,-11.251572 0.0057,-4.329952 0.101936,-7.308228 -0.10191,-9.676282 -0.203845,-2.368055 -0.808884,-4.28809 -2.201432,-5.782972 -0.787034,-0.844868 -1.50798,-1.458835 -2.170341,-1.977745 0.662463,-0.518959 1.383135,-1.133559 2.170341,-1.978612 1.392548,-1.494882 1.997587,-3.414914 2.201432,-5.782972 0.203846,-2.368055 0.107597,-5.347189 0.10191,-9.677145 -0.0067,-5.100188 -0.213117,-9.084031 0.579506,-11.251573 0.396312,-1.083771 0.902808,-1.728292 1.930248,-2.267069 1.02744,-0.538778 2.686268,-0.912874 5.205191,-0.912874 a 1.6977749,1.6977749 0 0 0 1.697927,-1.697927 1.6977749,1.6977749 0 0 0 -1.697927,-1.697063 z m 82.995461,0 a 1.6977749,1.6977749 0 0 0 -1.69793,1.697063 1.6977749,1.6977749 0 0 0 1.69793,1.697927 c 2.51892,0 4.17775,0.374096 5.20519,0.912874 1.02744,0.538777 1.53394,1.183298 1.93025,2.267069 0.79262,2.167542 0.58534,6.151385 0.57864,11.251573 -0.006,4.329952 -0.10193,7.309095 0.10191,9.677145 0.20384,2.368054 0.80974,4.28809 2.2023,5.782972 0.78728,0.845133 1.50783,1.459631 2.17034,1.978612 -0.66241,0.518932 -1.38323,1.132797 -2.17034,1.977745 -1.39256,1.494886 -1.99846,3.414917 -2.2023,5.782972 -0.20384,2.368054 -0.10758,5.34633 -0.10191,9.676282 0.007,5.100188 0.21398,9.084031 -0.57864,11.251572 -0.39631,1.083772 -0.90281,1.729157 -1.93025,2.267934 -1.02744,0.538778 -2.68627,0.91201 -5.20519,0.91201 a 1.6977749,1.6977749 0 0 0 -1.69793,1.697924 1.6977749,1.6977749 0 0 0 1.69793,1.69793 c 2.83974,0 5.03802,-0.38602 6.78221,-1.30065 1.74419,-0.914633 2.92391,-2.416263 3.54267,-4.10836 1.23753,-3.384194 0.79156,-7.466986 0.78505,-12.422676 -0.006,-4.373414 -0.0846,-7.364606 0.089,-9.380919 0.17357,-2.016308 0.49789,-2.894915 1.30324,-3.759447 2.00204,-2.149163 3.35872,-2.710984 3.35872,-2.710984 a 1.6977749,1.6977749 0 0 0 0.99492,-1.494108 1.6977749,1.6977749 0 0 0 0.0156,-0.08809 1.6977749,1.6977749 0 0 0 -0.0156,-0.08809 1.6977749,1.6977749 0 0 0 -0.99492,-1.493246 c 0,0 -1.35668,-0.561816 -3.35872,-2.710983 -0.80535,-0.864532 -1.12967,-1.743139 -1.30324,-3.759448 -0.17356,-2.016308 -0.0947,-5.008367 -0.089,-9.381779 0.007,-4.95569 0.45248,-9.037617 -0.78505,-12.421813 -0.61876,-1.692097 -1.79848,-3.193729 -3.54267,-4.108361 -1.74419,-0.914632 -3.94247,-1.30065 -6.78221,-1.30065 z"
       id="path957" />
    <path
       style="color:#000000;fill:#000000;stroke-width:0.442186;stroke-linecap:round;-inkscape-stroke:none;paint-order:fill markers stroke"
       d="m 37.166562,42.753345 c -1.818253,-0.249751 -3.538451,0.09471 -4.94437,0.880054 -2.811839,1.570687 -4.525623,4.396647 -4.623094,7.246849 -0.09786,2.861668 1.340514,5.863942 4.057406,7.613037 2.716892,1.749091 6.788974,1.737868 10.729067,-1.230698 a 1.9409775,1.9409775 0 0 0 0.382595,-2.71789 1.9409775,1.9409775 0 0 0 -2.717892,-0.382598 c -3.041686,2.291685 -4.879892,1.97603 -6.292521,1.066603 -1.412629,-0.909427 -2.323473,-2.919691 -2.27916,-4.215453 0.03952,-1.155531 1.118734,-3.142968 2.63671,-3.990905 1.517974,-0.847937 3.315472,-1.063341 6.008381,1.323105 a 1.9409775,1.9409775 0 0 0 2.739483,-0.16582 1.9409775,1.9409775 0 0 0 -0.164956,-2.739483 c -1.79715,-1.592628 -3.713396,-2.437051 -5.531649,-2.686801 z"
       id="path1336" />
    <path
       style="color:#000000;fill:#000000;stroke-width:0.442186;stroke-linecap:round;-inkscape-stroke:none;paint-order:fill markers stroke"
       d="m 37.166562,73.575124 c -1.818253,-0.249751 -3.538451,0.09471 -4.94437,0.880053 -2.811839,1.570686 -4.525623,4.396647 -4.623094,7.246848 -0.09786,2.861672 1.340514,5.863945 4.057406,7.613036 2.716892,1.74909 6.788974,1.737868 10.729067,-1.230694 a 1.9409775,1.9409775 0 0 0 0.382595,-2.718757 1.9409775,1.9409775 0 0 0 -2.717892,-0.38173 c -3.041686,2.29168 -4.879892,1.976029 -6.292521,1.066602 -1.412629,-0.909427 -2.323473,-2.919695 -2.27916,-4.215456 0.03952,-1.155531 1.118734,-3.142969 2.63671,-3.990905 1.517974,-0.847937 3.315472,-1.064202 6.008381,1.322243 a 1.9409775,1.9409775 0 0 0 2.739483,-0.164958 1.9409775,1.9409775 0 0 0 -0.164956,-2.740344 c -1.79715,-1.592627 -3.713396,-2.436191 -5.531649,-2.685938 z"
       id="path1336-8" />
    <path
       style="color:#000000;fill:#000000;stroke-width:0.442186;stroke-linecap:round;-inkscape-stroke:none;paint-order:fill markers stroke"
       d="m 55.043159,42.807754 c -4.588369,0.0096 -8.339721,3.774306 -8.333315,8.362679 0.0064,4.588375 3.768256,8.342565 8.356632,8.339359 4.588378,-0.0031 8.345405,-3.763073 8.345405,-8.35145 a 1.8158387,1.8158387 0 0 0 -0.0027,-0.01123 1.8158387,1.8158387 0 0 0 0.0027,-0.01209 c -0.01282,-4.58836 -3.780356,-8.336877 -8.368722,-8.327268 z m 0.0078,3.631629 c 2.626565,-0.0055 4.721985,2.079443 4.729321,4.706004 a 1.8158387,1.8158387 0 0 0 0.0027,0.006 1.8158387,1.8158387 0 0 0 -0.0027,0.0069 c 0,2.626571 -2.089796,4.71799 -4.71637,4.71982 -2.62657,0.0018 -4.718745,-2.086342 -4.722412,-4.712911 -0.0037,-2.626569 2.082895,-4.720367 4.709461,-4.725867 z"
       id="path1390" />
    <path
       id="path1390-5"
       style="color:#000000;fill:#000000;stroke-width:0.442186;stroke-linecap:round;-inkscape-stroke:none;paint-order:fill markers stroke"
       d="m 81.658148,37.129382 a 1.6977749,1.6977749 0 0 0 -1.711739,1.683176 l -0.04936,5.879464 c -1.325369,-0.966507 -2.954884,-1.537408 -4.710196,-1.533733 -4.395687,0.0092 -7.989686,3.615509 -7.983549,8.011198 0.0061,4.395688 3.609334,7.992786 8.005026,7.989717 1.699619,-0.0013 3.279843,-0.540913 4.579265,-1.45604 l -8.84e-4,0.109454 a 1.6977749,1.6977749 0 0 0 1.683178,1.712655 1.6977749,1.6977749 0 0 0 1.712654,-1.684089 l 0.158812,-19.000063 a 1.6977749,1.6977749 0 0 0 -1.683179,-1.711739 z m -6.464438,9.507685 c 2.516271,-0.0053 4.523572,1.99285 4.530593,4.509113 a 1.7395859,1.7395859 0 0 0 0.0027,0.0062 1.7395859,1.7395859 0 0 0 -0.0027,0.0059 c 0,2.516271 -2.0013,4.519469 -4.517567,4.521224 -2.516275,0.0018 -4.521139,-1.998784 -4.52465,-4.515055 -0.0035,-2.516269 1.995362,-4.522123 4.511624,-4.527393 z" />
    <path
       id="path1420-2"
       style="color:#000000;fill:#000000;stroke-width:0.442186;stroke-linecap:round;-inkscape-stroke:none;paint-order:fill markers stroke"
       d="m 67.28968,73.696084 a 1.6977749,1.6977749 0 0 0 -1.721335,1.673809 c -0.04692,3.337782 -0.334801,6.642693 0.245414,9.467924 0.290105,1.412617 0.830466,2.773902 1.910311,3.799372 1.079851,1.025466 2.62948,1.55704 4.387321,1.55704 1.857555,0 3.57659,-0.639583 4.977322,-1.704885 l -2.3e-4,0.01119 a 1.6977749,1.6977749 0 0 0 1.67632,1.718823 1.6977749,1.6977749 0 0 0 1.719513,-1.676324 l 0.07495,-6.022735 c 0.03573,-0.266788 0.05988,-0.536407 0.07107,-0.808683 a 1.6977749,1.6977749 0 0 0 -0.05484,-0.500657 l 0.06787,-5.446446 A 1.6977749,1.6977749 0 0 0 78.967033,74.045 1.6977749,1.6977749 0 0 0 77.24844,75.72132 l -0.08135,6.507858 c -0.433591,2.48537 -2.684598,4.569209 -5.0557,4.569209 -1.143556,0 -1.661776,-0.255429 -2.049472,-0.623593 -0.38769,-0.368169 -0.714298,-1.007429 -0.92225,-2.019996 C 68.72377,82.129663 68.914764,78.88348 68.963488,75.41718 A 1.6977749,1.6977749 0 0 0 67.28968,73.696071 Z" />
    <path
       id="path1420-2-6"
       style="color:#000000;fill:#000000;stroke-width:0.442186;stroke-linecap:round;-inkscape-stroke:none;paint-order:fill markers stroke"
       d="m 50.101447,68.737958 a 1.6977749,1.6977749 0 0 0 -1.698943,1.696886 1.6977749,1.6977749 0 0 0 1.698029,1.698942 l 3.011713,0.0013 -0.130021,14.155958 -2.867981,-0.0505 a 1.6977749,1.6977749 0 0 0 -1.727278,1.667866 1.6977749,1.6977749 0 0 0 1.667866,1.727277 l 9.081063,0.159727 a 1.6977749,1.6977749 0 0 0 1.727278,-1.667636 1.6977749,1.6977749 0 0 0 -1.667635,-1.727277 l -2.81771,-0.04959 0.144644,-15.851934 a 1.6977749,1.6977749 0 0 0 -1.351614,-1.67746 1.6977749,1.6977749 0 0 0 -0.519852,-0.08181 z" />
    <path
       id="path1390-5-7"
       style="color:#000000;fill:#000000;stroke-width:0.442186;stroke-linecap:round;-inkscape-stroke:none;paint-order:fill markers stroke"
       d="m 89.174403,67.913966 a 1.6977749,1.6977749 0 0 0 -1.711739,1.683174 l -0.159727,19.000288 a 1.6977749,1.6977749 0 0 0 1.683179,1.712654 1.6977749,1.6977749 0 0 0 1.712654,-1.684319 l 0.005,-0.601197 c 1.400259,1.195584 3.213493,1.919686 5.186405,1.918307 4.395675,-0.0031 7.994745,-3.60432 7.994745,-8.000002 a 1.7395615,1.7395615 0 0 0 -0.003,-0.01119 1.7395615,1.7395615 0 0 0 0.003,-0.01119 c -0.0123,-4.395661 -3.6217,-7.986586 -8.017367,-7.97738 -1.917131,0.004 -3.681437,0.692389 -5.061412,1.831934 l 0.05141,-6.149327 a 1.6977749,1.6977749 0 0 0 -1.683179,-1.71174 z m 6.700947,9.507911 c 2.516275,-0.0053 4.52288,1.991921 4.5299,4.508201 a 1.7395615,1.7395615 0 0 0 0.003,0.0059 1.7395615,1.7395615 0 0 0 -0.003,0.0069 c 0,2.516289 -2.001505,4.519469 -4.517789,4.521224 -2.516288,0.0018 -4.520229,-1.998771 -4.52374,-4.515051 -0.0035,-2.516288 1.995344,-4.5219 4.511629,-4.527167 z" />
    <path
       id="path1422"
       style="color:#000000;fill:#000000;stroke-width:0.442186;stroke-linecap:round;stroke-linejoin:round;-inkscape-stroke:none;paint-order:fill markers stroke"
       d="m 96.25307,43.328983 c -0.05357,-3.75e-4 -0.107611,-1.83e-4 -0.161783,4.42e-4 -3.461303,0.04088 -5.719235,2.066136 -6.814054,3.928707 -1.094818,1.86257 -1.299059,3.699744 -1.299059,3.699744 a 1.6979447,1.6979447 0 0 0 -0.0066,0.289289 1.6977749,1.6977749 0 0 0 -0.0053,0.08295 c 0.01375,1.68871 0.459511,3.618898 1.756528,5.219082 1.297013,1.600189 3.4884,2.707146 6.310655,2.686778 3.700221,-0.02666 6.540303,-2.057241 6.540303,-2.057241 a 1.6977749,1.6977749 0 0 0 0.43713,-2.361156 1.6977749,1.6977749 0 0 0 -2.36116,-0.436903 c 0,0 -2.208594,1.44193 -4.640496,1.459468 -2.002472,0.01446 -2.979098,-0.603081 -3.648785,-1.429306 -0.35765,-0.441245 -0.614511,-0.98891 -0.778523,-1.568237 l 10.583494,-0.07609 a 1.6979447,1.6979447 0 0 0 1.68317,-1.786004 c 0,0 -0.0749,-1.853527 -1.06484,-3.745673 -0.97448,-1.862581 -3.15579,-3.882257 -6.530699,-3.905856 z m -0.122022,3.395374 c 2.258883,-0.02668 3.04445,0.939403 3.643758,2.08489 0.107867,0.206163 0.126886,0.374536 0.203826,0.576978 l -7.970521,0.0569 c 0.07839,-0.165506 0.09693,-0.295918 0.196056,-0.464553 0.697328,-1.186334 1.66233,-2.227467 3.926881,-2.254213 z" />
  </g>
</svg>
