<svg xmlns="http://www.w3.org/2000/svg" width="41" height="42" viewBox="0 0 41 42" fill="none">
  <mask id="mask0_64_58" style="mask-type:alpha" maskUnits="userSpaceOnUse" x="0" y="0" width="41" height="42">
    <rect y="0.5" width="41" height="41" fill="#D9D9D9"/>
  </mask>
  <g mask="url(#mask0_64_58)">
    <path d="M20.5 38.0833C18.1368 38.0833 15.916 37.6349 13.8375 36.738C11.759 35.8412 9.95106 34.624 8.41356 33.0865C6.87606 31.549 5.65887 29.741 4.762 27.6625C3.86512 25.584 3.41669 23.3632 3.41669 21C3.41669 18.6368 3.86512 16.416 4.762 14.3375C5.65887 12.259 6.87606 10.451 8.41356 8.91355C9.95106 7.37605 11.759 6.15886 13.8375 5.26198C15.916 4.36511 18.1368 3.91667 20.5 3.91667C22.8632 3.91667 25.084 4.36511 27.1625 5.26198C29.241 6.15886 31.049 7.37605 32.5865 8.91355C34.124 10.451 35.3412 12.259 36.238 14.3375C37.1349 16.416 37.5834 18.6368 37.5834 21C37.5834 23.3632 37.1349 25.584 36.238 27.6625C35.3412 29.741 34.124 31.549 32.5865 33.0865C31.049 34.624 29.241 35.8412 27.1625 36.738C25.084 37.6349 22.8632 38.0833 20.5 38.0833ZM18.7917 34.5813V31.25C17.8521 31.25 17.0478 30.9155 16.3787 30.2464C15.7096 29.5773 15.375 28.7729 15.375 27.8333V26.125L7.17502 17.925C7.0896 18.4375 7.01131 18.95 6.94012 19.4625C6.86894 19.975 6.83335 20.4875 6.83335 21C6.83335 24.4451 7.96512 27.4632 10.2287 30.0542C12.4922 32.6451 15.3465 34.1542 18.7917 34.5813ZM30.5792 30.225C31.1486 29.5986 31.6611 28.9224 32.1167 28.1964C32.5722 27.4703 32.9495 26.7158 33.2485 25.9328C33.5474 25.1498 33.7752 24.3455 33.9318 23.5198C34.0884 22.6941 34.1667 21.8542 34.1667 21C34.1667 18.2097 33.3908 15.6615 31.8391 13.3552C30.2873 11.049 28.216 9.38334 25.625 8.35834V9.04167C25.625 9.98126 25.2905 10.7856 24.6214 11.4547C23.9523 12.1238 23.1479 12.4583 22.2084 12.4583H18.7917V15.875C18.7917 16.359 18.628 16.7648 18.3005 17.0922C17.9731 17.4196 17.5674 17.5833 17.0834 17.5833H13.6667V21H23.9167C24.4007 21 24.8064 21.1637 25.1339 21.4912C25.4613 21.8186 25.625 22.2243 25.625 22.7083V27.8333H27.3334C28.0736 27.8333 28.7427 28.054 29.3406 28.4953C29.9386 28.9366 30.3514 29.5132 30.5792 30.225Z" fill="#E6E6E6"/>
  </g>
</svg>