<svg xmlns="http://www.w3.org/2000/svg" width="41" height="42" viewBox="0 0 41 42" fill="none">
  <mask id="mask0_64_124" style="mask-type:alpha" maskUnits="userSpaceOnUse" x="0" y="0" width="41" height="42">
    <rect y="0.5" width="41" height="41" fill="#E6E6E6"/>
  </mask>
  <g mask="url(#mask0_64_124)">
    <path d="M7.34585 36.1187C5.83682 36.1187 4.56269 35.5991 3.52345 34.5599C2.48422 33.5207 1.9646 32.2465 1.9646 30.7375V11.2625C1.9646 9.75346 2.48422 8.47933 3.52345 7.4401C4.56269 6.40086 5.83682 5.88124 7.34585 5.88124H16.4427L20.5 9.93853H33.6542C35.1632 9.93853 36.4373 10.4582 37.4766 11.4974C38.5158 12.5366 39.0354 13.8108 39.0354 15.3198V30.7375C39.0354 32.2465 38.5158 33.5207 37.4766 34.5599C36.4373 35.5991 35.1632 36.1187 33.6542 36.1187H7.34585ZM7.34585 30.7375H33.6542V15.3198H18.2792L14.2219 11.2625H7.34585V30.7375Z" fill="#E6E6E6"/>
  </g>
</svg>