<svg xmlns="http://www.w3.org/2000/svg" width="41" height="42" viewBox="0 0 41 42" fill="none">
  <mask id="mask0_64_112" style="mask-type:alpha" maskUnits="userSpaceOnUse" x="0" y="0" width="41" height="42">
    <rect y="0.5" width="41" height="41" fill="#D9D9D9"/>
  </mask>
  <g mask="url(#mask0_64_112)">
    <path d="M7.34585 36.1187C5.83682 36.1187 4.56269 35.5991 3.52345 34.5599C2.48422 33.5207 1.9646 32.2465 1.9646 30.7375V11.2625C1.9646 9.75346 2.48422 8.47933 3.52345 7.4401C4.56269 6.40086 5.83682 5.88124 7.34585 5.88124H33.6542C35.1632 5.88124 36.4373 6.40086 37.4766 7.4401C38.5158 8.47933 39.0354 9.75346 39.0354 11.2625V30.7375C39.0354 32.2465 38.5158 33.5207 37.4766 34.5599C36.4373 35.5991 35.1632 36.1187 33.6542 36.1187H7.34585ZM7.34585 30.7375H33.6542V14.6792H7.34585V30.7375ZM12.8125 29.5417L10.4209 27.15L14.8198 22.7083L10.3781 18.2667L12.8125 15.875L19.6459 22.7083L12.8125 29.5417ZM20.5 29.5417V26.125H30.75V29.5417H20.5Z" fill="#E6E6E6"/>
  </g>
</svg>