<svg xmlns="http://www.w3.org/2000/svg" width="40" height="31" viewBox="0 0 40 31" fill="none">
  <path d="M6.34585 30.6187C4.83682 30.6187 3.56269 30.0991 2.52345 29.0599C1.48422 28.0206 0.9646 26.7465 0.9646 25.2375V5.76248C0.9646 4.22498 1.48422 2.94373 2.52345 1.91873C3.56269 0.893726 4.83682 0.381226 6.34585 0.381226H15.4427L19.5 4.43852H32.6542C34.1917 4.43852 35.4729 4.95814 36.4979 5.99737C37.5229 7.03661 38.0354 8.31074 38.0354 9.81977H17.2792L13.2219 5.76248H6.34585V25.451L10.275 13.2364H40.299L36.3271 25.5791C35.7577 27.3159 34.9177 28.5901 33.8073 29.4015C32.6969 30.213 31.2448 30.6187 29.4511 30.6187H6.34585ZM12.1115 25.2375H30.775L32.8677 18.6177H14.2042L12.1115 25.2375Z" fill="#E6E6E6"/>
</svg>