<svg xmlns="http://www.w3.org/2000/svg" width="41" height="42" viewBox="0 0 41 42" fill="none">
  <mask id="mask0_64_20" style="mask-type:alpha" maskUnits="userSpaceOnUse" x="0" y="0" width="41" height="42">
    <rect y="0.5" width="41" height="41" fill="#D9D9D9"/>
  </mask>
  <g mask="url(#mask0_64_20)">
    <path d="M33.3979 37.9979L22.3364 26.9365C21.5108 27.5059 20.5498 27.9615 19.4536 28.3031C18.3574 28.6448 17.1687 28.8156 15.8875 28.8156C12.5278 28.8156 9.67342 27.6412 7.32446 25.2922C4.9755 22.9432 3.80103 20.0889 3.80103 16.7292C3.80103 13.3695 4.9755 10.5151 7.32446 8.16615C9.67342 5.81719 12.5278 4.64272 15.8875 4.64272C19.2472 4.64272 22.1015 5.81719 24.4505 8.16615C26.7995 10.5151 27.9739 13.3695 27.9739 16.7292C27.9739 18.0389 27.8031 19.2276 27.4614 20.2953C27.1198 21.363 26.6642 22.2955 26.0948 23.0927L37.1989 34.2396L33.3979 37.9979ZM15.8875 23.4344C17.7667 23.4344 19.354 22.7866 20.6495 21.4912C21.945 20.1957 22.5927 18.6083 22.5927 16.7292C22.5927 14.85 21.945 13.2627 20.6495 11.9672C19.354 10.6717 17.7667 10.024 15.8875 10.024C14.0083 10.024 12.421 10.6717 11.1255 11.9672C9.83002 13.2627 9.18228 14.85 9.18228 16.7292C9.18228 18.6083 9.83002 20.1957 11.1255 21.4912C12.421 22.7866 14.0083 23.4344 15.8875 23.4344Z" fill="#E6E6E6"/>
  </g>
</svg>