<?xml version="1.0" encoding="UTF-8" standalone="no"?>
<!-- Created with Inkscape (http://www.inkscape.org/) -->

<svg
   width="500"
   height="500"
   viewBox="0 0 500 500"
   version="1.1"
   id="svg5"
   inkscape:version="1.2.2 (732a01da63, 2022-12-09)"
   sodipodi:docname="mask-icon.svg"
   inkscape:export-filename="logo-round.png"
   inkscape:export-xdpi="96"
   inkscape:export-ydpi="96"
   xmlns:inkscape="http://www.inkscape.org/namespaces/inkscape"
   xmlns:sodipodi="http://sodipodi.sourceforge.net/DTD/sodipodi-0.dtd"
   xmlns="http://www.w3.org/2000/svg"
   xmlns:svg="http://www.w3.org/2000/svg">
  <sodipodi:namedview
     id="namedview7"
     pagecolor="#505050"
     bordercolor="#ffffff"
     borderopacity="1"
     inkscape:showpageshadow="0"
     inkscape:pageopacity="0"
     inkscape:pagecheckerboard="1"
     inkscape:deskcolor="#505050"
     inkscape:document-units="px"
     showgrid="false"
     inkscape:zoom="0.88"
     inkscape:cx="19.318182"
     inkscape:cy="352.27273"
     inkscape:window-width="1857"
     inkscape:window-height="1057"
     inkscape:window-x="-8"
     inkscape:window-y="-8"
     inkscape:window-maximized="1"
     inkscape:current-layer="layer1" />
  <defs
     id="defs2" />
  <g
     inkscape:label="Layer 1"
     inkscape:groupmode="layer"
     id="layer1">
    <path
       id="rect14119"
       style="fill:#ffffff;fill-opacity:1;stroke:none;stroke-width:6;stroke-linecap:round;stroke-linejoin:round;stroke-miterlimit:6.6;stroke-dasharray:none;stroke-opacity:1;paint-order:fill markers stroke"
       d="M 100 0 C 44.600055 0 0 44.600055 0 100 L 0 400 C 0 455.39994 44.600055 500 100 500 L 400 500 C 455.39994 500 500 455.39994 500 400 L 500 100 C 500 44.600055 455.39994 0 400 0 L 100 0 z M 247.25195 93.75 A 22.321428 22.321428 0 0 1 269.57422 116.07227 A 22.321428 22.321428 0 0 1 263.84375 130.9668 L 344.16992 230.64453 A 22.321428 22.321428 0 0 1 355.18164 227.67773 A 22.321428 22.321428 0 0 1 377.50195 250 A 22.321428 22.321428 0 0 1 355.18164 272.32227 A 22.321428 22.321428 0 0 1 344.16992 269.35547 L 263.85742 369.01562 A 22.321428 22.321428 0 0 1 269.57422 383.92773 A 22.321428 22.321428 0 0 1 247.25195 406.25 A 22.321428 22.321428 0 0 1 224.93164 383.92773 A 22.321428 22.321428 0 0 1 226.61328 375.55469 L 160.76367 332.50586 A 22.321428 22.321428 0 0 1 144.81836 339.28516 A 22.321428 22.321428 0 0 1 122.49805 316.96484 A 22.321428 22.321428 0 0 1 144.81836 294.64258 A 22.321428 22.321428 0 0 1 150.94922 295.50781 L 174.15234 250 L 150.94531 204.48828 A 22.321428 22.321428 0 0 1 144.81836 205.35742 A 22.321428 22.321428 0 0 1 122.49805 183.03516 A 22.321428 22.321428 0 0 1 144.81836 160.71484 A 22.321428 22.321428 0 0 1 160.80469 167.46484 L 226.61328 124.44531 A 22.321428 22.321428 0 0 1 224.93164 116.07227 A 22.321428 22.321428 0 0 1 247.25195 93.75 z M 231.30664 131.61328 L 165.49609 174.63672 A 22.321428 22.321428 0 0 1 167.14062 183.03516 A 22.321428 22.321428 0 0 1 165.45898 191.4082 L 194.38477 210.31836 L 233.50586 133.59375 A 22.321428 22.321428 0 0 1 231.30664 131.61328 z M 258.26172 135.42773 A 22.321428 22.321428 0 0 1 247.25195 138.39258 A 22.321428 22.321428 0 0 1 241.125 137.52344 L 201.60156 215.03516 L 231.30859 234.45703 A 22.321428 22.321428 0 0 1 247.25195 227.67773 A 22.321428 22.321428 0 0 1 269.28125 246.42773 L 333.17383 246.42773 A 22.321428 22.321428 0 0 1 338.5918 235.10352 L 258.26172 135.42773 z M 160.76172 198.57812 A 22.321428 22.321428 0 0 1 158.5625 200.55859 L 178.96289 240.56445 L 190.46875 217.99805 L 160.76172 198.57812 z M 197.68555 222.7168 L 183.77344 250 L 197.68555 277.2832 L 226.61133 258.37305 A 22.321428 22.321428 0 0 1 224.93164 250 A 22.321428 22.321428 0 0 1 226.61133 241.62695 L 197.68555 222.7168 z M 269.25977 253.57227 A 22.321428 22.321428 0 0 1 247.25195 272.32227 A 22.321428 22.321428 0 0 1 231.30859 265.54297 L 201.60156 284.96484 L 241.125 362.47656 A 22.321428 22.321428 0 0 1 247.25195 361.60742 A 22.321428 22.321428 0 0 1 258.29102 364.53516 L 338.5918 264.89648 A 22.321428 22.321428 0 0 1 333.17383 253.57227 L 269.25977 253.57227 z M 178.96289 259.43555 L 158.58398 299.40039 A 22.321428 22.321428 0 0 1 160.80469 301.39453 L 190.46875 282.00195 L 178.96289 259.43555 z M 194.38477 289.68164 L 165.49805 308.56641 A 22.321428 22.321428 0 0 1 167.14062 316.96484 A 22.321428 22.321428 0 0 1 165.45898 325.33789 L 231.30664 368.38672 A 22.321428 22.321428 0 0 1 233.50586 366.40625 L 194.38477 289.68164 z " />
  </g>
</svg>
