<?xml version="1.0" encoding="UTF-8" standalone="no"?>
<!-- Created with Inkscape (http://www.inkscape.org/) -->

<svg
   width="500"
   height="500"
   viewBox="0 0 132.29166 132.29167"
   version="1.1"
   id="svg791"
   inkscape:version="1.2.2 (732a01da63, 2022-12-09)"
   sodipodi:docname="logo-square-compact.svg"
   xmlns:inkscape="http://www.inkscape.org/namespaces/inkscape"
   xmlns:sodipodi="http://sodipodi.sourceforge.net/DTD/sodipodi-0.dtd"
   xmlns="http://www.w3.org/2000/svg"
   xmlns:svg="http://www.w3.org/2000/svg">
  <sodipodi:namedview
     id="namedview793"
     pagecolor="#505050"
     bordercolor="#ffffff"
     borderopacity="1"
     inkscape:showpageshadow="0"
     inkscape:pageopacity="0"
     inkscape:pagecheckerboard="1"
     inkscape:deskcolor="#505050"
     inkscape:document-units="mm"
     showgrid="false"
     inkscape:zoom="1.104894"
     inkscape:cx="150.24065"
     inkscape:cy="219.93059"
     inkscape:window-width="1857"
     inkscape:window-height="1057"
     inkscape:window-x="-8"
     inkscape:window-y="-8"
     inkscape:window-maximized="1"
     inkscape:current-layer="layer1" />
  <defs
     id="defs788">
    <inkscape:path-effect
       effect="mirror_symmetry"
       start_point="7.8390344,66.464298"
       end_point="132.29167,66.145833"
       center_point="66.145833,66.145833"
       id="path-effect1030"
       is_visible="true"
       lpeversion="1.2"
       lpesatellites=""
       mode="vertical"
       discard_orig_path="false"
       fuse_paths="false"
       oposite_fuse="false"
       split_items="false"
       split_open="false"
       link_styles="false" />
  </defs>
  <g
     inkscape:label="Layer 1"
     inkscape:groupmode="layer"
     id="layer1">
    <path
       style="color:#000000;fill:#000000;stroke-width:0.760009;stroke-linecap:round;-inkscape-stroke:none;paint-order:fill markers stroke"
       d="m 56.122153,5.8527501 c -4.880817,0 -8.65912,0.6634703 -11.656953,2.2354984 -2.997833,1.5720283 -5.025484,4.1529655 -6.088986,7.0612655 -2.127004,5.816603 -1.3605,12.832432 -1.349315,21.350051 0.0098,7.516823 0.143946,12.659438 -0.154379,16.124978 -0.298319,3.46554 -0.855746,4.975642 -2.239952,6.461569 -3.441024,3.69389 -5.771327,4.659515 -5.771327,4.659515 -0.988079,0.537953 -1.578901,1.596006 -1.518535,2.719415 -0.05978,1.122885 0.530962,2.180208 1.518535,2.717924 0,0 2.330303,0.965633 5.771327,4.659516 1.384206,1.485926 1.941633,2.996029 2.239952,6.461568 0.29832,3.465539 0.164244,8.606673 0.154379,16.123499 -0.01117,8.517611 -0.777689,15.534941 1.349315,21.351531 1.063502,2.9083 3.091153,5.48924 6.088986,7.06127 2.997833,1.57202 6.776138,2.23549 11.656953,2.23549 1.611805,1.5e-4 2.918468,-1.30651 2.91832,-2.91832 1.41e-4,-1.6118 -1.306518,-2.91846 -2.91832,-2.91831 -4.329411,0 -7.18053,-0.6415 -8.946447,-1.56752 -1.765918,-0.92604 -2.63646,-2.03529 -3.317624,-3.89803 -1.362324,-3.72547 -1.007539,-10.57272 -0.996028,-19.338692 0.0098,-7.442126 0.175203,-12.561052 -0.175158,-16.631156 -0.35036,-4.070106 -1.390274,-7.370176 -3.783722,-9.939511 -1.352718,-1.452121 -2.591848,-2.50738 -3.730284,-3.399259 1.138611,-0.891963 2.37727,-1.94831 3.730284,-3.400748 2.393448,-2.569336 3.433362,-5.869401 3.783722,-9.939511 0.350361,-4.070107 0.184933,-9.190508 0.175158,-16.63264 -0.01151,-8.765973 -0.366296,-15.613222 0.996028,-19.338696 0.681164,-1.862736 1.551706,-2.97051 3.317624,-3.896535 1.765917,-0.926027 4.617036,-1.569006 8.946447,-1.569006 1.611803,1.44e-4 2.918464,-1.306517 2.91832,-2.9183208 -6.76e-4,-1.6112243 -1.307096,-2.9169795 -2.91832,-2.9168351 z m 20.047362,0 c 4.880816,0 8.659119,0.6634703 11.656952,2.2354984 2.997834,1.5720283 5.025485,4.1529655 6.088987,7.0612655 2.127004,5.816603 1.360499,12.832432 1.349315,21.350051 -0.0098,7.516823 -0.143946,12.659438 0.154379,16.124978 0.298318,3.46554 0.855745,4.975642 2.239952,6.461569 3.44102,3.69389 5.77133,4.659515 5.77133,4.659515 0.98807,0.537953 1.5789,1.596006 1.51853,2.719415 0.0598,1.122885 -0.53096,2.180208 -1.51853,2.717924 0,0 -2.33031,0.965633 -5.77133,4.659516 -1.384207,1.485926 -1.941634,2.996029 -2.239952,6.461568 -0.29832,3.465539 -0.164245,8.606673 -0.154379,16.123499 0.01117,8.517611 0.777689,15.534941 -1.349315,21.351531 -1.063502,2.9083 -3.091153,5.48924 -6.088987,7.06127 -2.997833,1.57202 -6.776138,2.23549 -11.656952,2.23549 -1.611805,1.5e-4 -2.918468,-1.30651 -2.918321,-2.91832 -1.42e-4,-1.6118 1.306519,-2.91846 2.918321,-2.91831 4.329411,0 7.180529,-0.6415 8.946447,-1.56752 1.765917,-0.92604 2.63646,-2.03529 3.317623,-3.89803 1.362325,-3.72547 1.007539,-10.57272 0.996029,-19.338692 -0.0098,-7.442126 -0.175204,-12.561052 0.175158,-16.631156 0.35036,-4.070106 1.390274,-7.370176 3.783721,-9.939511 1.352719,-1.452121 2.591848,-2.50738 3.730285,-3.399259 -1.138611,-0.891963 -2.377271,-1.94831 -3.730285,-3.400748 -2.393447,-2.569336 -3.433361,-5.869401 -3.783721,-9.939511 -0.350362,-4.070107 -0.184933,-9.190508 -0.175158,-16.63264 0.01152,-8.765973 0.366296,-15.613222 -0.996029,-19.338696 -0.681163,-1.862736 -1.551706,-2.97051 -3.317623,-3.896535 -1.765918,-0.926027 -4.617036,-1.569006 -8.946447,-1.569006 -1.611804,1.44e-4 -2.918465,-1.306517 -2.918321,-2.9183208 6.76e-4,-1.6112243 1.307097,-2.9169795 2.918321,-2.9168351 z"
       id="path957" />
  </g>
</svg>
