<?xml version="1.0" encoding="UTF-8" standalone="no"?>
<svg
   fill="#fff"
   viewBox="-128 -128 256 256"
   version="1.1"
   id="svg44"
   sodipodi:docname="duckduckgo.svg"
   inkscape:version="1.2.1 (9c6d41e410, 2022-07-14)"
   xmlns:inkscape="http://www.inkscape.org/namespaces/inkscape"
   xmlns:sodipodi="http://sodipodi.sourceforge.net/DTD/sodipodi-0.dtd"
   xmlns="http://www.w3.org/2000/svg"
   xmlns:svg="http://www.w3.org/2000/svg">
  <defs
     id="defs48" />
  <sodipodi:namedview
     id="namedview46"
     pagecolor="#505050"
     bordercolor="#ffffff"
     borderopacity="1"
     inkscape:showpageshadow="0"
     inkscape:pageopacity="0"
     inkscape:pagecheckerboard="1"
     inkscape:deskcolor="#505050"
     showgrid="false"
     inkscape:zoom="1.84375"
     inkscape:cx="99.525426"
     inkscape:cy="207.18645"
     inkscape:window-width="1280"
     inkscape:window-height="953"
     inkscape:window-x="-8"
     inkscape:window-y="-8"
     inkscape:window-maximized="1"
     inkscape:current-layer="svg44" />
  <circle
     fill="#dd5533"
     r="124.49152"
     id="circle28"
     cx="-0.90363675"
     cy="-0.55398995"
     style="stroke-width:1.1527" />
  <circle
     fill="none"
     r="110.65914"
     stroke="#ffffff"
     stroke-width="7.36604"
     id="circle30"
     cx="-0.90363675"
     cy="-0.55398995" />
  <path
     d="m -47.278986,-63.216182 c -34.580979,8.068895 -21.901286,56.4822664 -21.901286,56.4822664 l 21.901286,107.2010456 8.068895,3.45809 m -16.13779,-187.889991 h -9.221594 l 12.679692,4.610798 c 0,0 -12.679692,0 -12.679692,8.068895 27.664783,-1.152698 40.344476,5.763497 40.344476,5.763497"
     fill="#dddddd"
     id="path32"
     style="stroke-width:1.1527" />
  <path
     d="m 18.424876,109.68871 c 0,0 -27.6647842,-43.80257 -27.6647842,-72.620052 0,-54.176867 35.7336792,-8.068894 35.7336792,-50.718769 0,-42.649875 -35.7336792,-53.02417 -35.7336792,-53.02417 -17.2904898,-21.901286 -50.7187708,-17.29049 -50.7187708,-17.29049 l 8.068896,4.610798 c 0,0 -8.068896,2.3054 -10.374294,4.610798 -2.305398,2.305399 21.901287,-3.458098 32.275581,5.763497 -42.649875,3.458097 -35.733679,38.039076 -35.733679,38.039076 l 24.206686,138.323912"
     id="path34"
     style="stroke-width:1.1527" />
  <path
     d="M 18.424876,-0.97041898 62.227449,-12.497412 C 101.41923,-6.7339156 28.799169,15.16737 24.188371,14.014672 -10.392607,8.2511764 -0.01831368,37.068658 41.478862,27.847063 82.976036,18.625469 51.853156,50.90105 13.814079,38.221357 -40.36279,23.236266 -11.545307,-3.2758176 18.424876,-0.97041898"
     fill="#ffcc00"
     id="path36"
     style="stroke-width:1.1527" />
  <path
     d="m 6.8978824,90.092827 2.305399,-3.458096 C 34.562666,95.856328 35.715366,99.314417 34.562666,76.260435 c -1.1527,-23.053986 0,-23.053986 -26.5120842,-3.458098 0,-5.763496 -14.9850913,-3.458097 -17.29049,0 -24.2066858,-10.374295 -26.5120848,-13.832391 -25.3593848,2.305398 2.305398,33.428275 1.152699,27.664785 24.206686,16.137791"
     fill="#66bb55"
     id="path38"
     style="stroke-width:1.1527" />
  <path
     d="m -11.545307,77.413135 v 13.832391 c 1.1527,2.305399 19.5958888,2.305399 19.5958888,-2.305398 0,-4.610797 -9.2215949,3.458099 -14.9850913,1.152699 -5.7634965,-2.305399 -2.3053987,-14.985092 -2.3053987,-14.985092"
     fill="#44aa44"
     id="path40"
     style="stroke-width:1.1527" />
  <path
     d="m -36.904692,-36.704098 c -5.763496,-6.916197 -20.748589,-1.152698 -17.29049,8.068897 1.152699,-4.610799 9.221594,-11.526995 17.29049,-8.068897 m 36.88637832,0 c 1.15269928,-6.916197 12.67969268,-8.068895 16.13779068,-1.152698 -4.610797,-2.3054 -11.5269934,-2.3054 -16.13779068,1.152698 M -38.057391,-18.26091 a 2.3053986,2.3053986 0 1 1 0,1.152701 m -9.221595,3.458098 a 8.0688952,8.0688952 0 1 0 0,-1.1527 m 59.940365,-6.916196 a 2.3053986,2.3053986 0 1 1 0,1.152699 m -6.9161961,3.458099 a 6.9161959,6.9161959 0 1 0 0,-1.152701"
     fill="#114488"
     id="path42"
     style="stroke-width:1.1527" />
</svg>
