<?xml version="1.0" encoding="UTF-8"?>
<svg xmlns="http://www.w3.org/2000/svg" xmlns:xlink="http://www.w3.org/1999/xlink" width="500px" height="500px" viewBox="0 0 500 500" version="1.1">
<defs>
<linearGradient id="linear0" gradientUnits="userSpaceOnUse" x1="3.2173" y1="15" x2="44.7812" y2="15" gradientTransform="matrix(10.416667,0,0,10.416667,0,0)">
<stop offset="0" style="stop-color:rgb(85.098039%,18.823529%,14.509804%);stop-opacity:1;"/>
<stop offset="1" style="stop-color:rgb(91.764706%,26.27451%,20.784314%);stop-opacity:1;"/>
</linearGradient>
<linearGradient id="linear1" gradientUnits="userSpaceOnUse" x1="20.7219" y1="47.6791" x2="41.5039" y2="11.6837" gradientTransform="matrix(10.416667,0,0,10.416667,0,0)">
<stop offset="0" style="stop-color:rgb(98.823529%,78.823529%,20.392157%);stop-opacity:1;"/>
<stop offset="1" style="stop-color:rgb(98.431373%,73.72549%,1.568627%);stop-opacity:1;"/>
</linearGradient>
<linearGradient id="linear2" gradientUnits="userSpaceOnUse" x1="26.5981" y1="46.5015" x2="5.8161" y2="10.506" gradientTransform="matrix(10.416667,0,0,10.416667,0,0)">
<stop offset="0" style="stop-color:rgb(11.764706%,55.686275%,24.313725%);stop-opacity:1;"/>
<stop offset="1" style="stop-color:rgb(20.392157%,65.882353%,32.54902%);stop-opacity:1;"/>
</linearGradient>
</defs>
<g id="surface1">
<path style=" stroke:none;fill-rule:nonzero;fill:rgb(100%,100%,100%);fill-opacity:1;" d="M 375 249.945312 C 375 318.980469 319.035156 374.945312 250 374.945312 C 180.964844 374.945312 125 318.980469 125 249.945312 C 125 180.910156 180.964844 124.945312 250 124.945312 C 319.035156 124.945312 375 180.910156 375 249.945312 Z M 375 249.945312 "/>
<path style=" stroke:none;fill-rule:nonzero;fill:url(#linear0);" d="M 250 125 L 466.472656 125 C 421.824219 47.644531 339.296875 -0.0078125 249.984375 0 C 160.671875 0.00390625 78.148438 47.667969 33.511719 125.03125 L 141.75 312.5 L 141.847656 312.476562 C 119.433594 273.828125 119.382812 226.15625 141.707031 187.460938 C 164.027344 148.765625 205.328125 124.945312 250 125 Z M 250 125 "/>
<path style=" stroke:none;fill-rule:nonzero;fill:rgb(10.196078%,45.098039%,90.980392%);fill-opacity:1;" d="M 348.957031 250 C 348.957031 304.652344 304.652344 348.957031 250 348.957031 C 195.347656 348.957031 151.042969 304.652344 151.042969 250 C 151.042969 195.347656 195.347656 151.042969 250 151.042969 C 304.652344 151.042969 348.957031 195.347656 348.957031 250 Z M 348.957031 250 "/>
<path style=" stroke:none;fill-rule:nonzero;fill:url(#linear1);" d="M 358.242188 312.53125 L 250.007812 500 C 339.320312 500.011719 421.851562 452.367188 466.503906 375.015625 C 511.152344 297.664062 511.136719 202.367188 466.457031 125.03125 L 249.988281 125.03125 L 249.960938 125.128906 C 294.636719 125.042969 335.949219 148.832031 358.300781 187.515625 C 380.648438 226.195312 380.628906 273.871094 358.242188 312.53125 Z M 358.242188 312.53125 "/>
<path style=" stroke:none;fill-rule:nonzero;fill:url(#linear2);" d="M 141.757812 312.53125 L 33.519531 125.0625 C -11.148438 202.402344 -11.152344 297.703125 33.511719 375.046875 C 78.171875 452.390625 160.710938 500.023438 250.027344 500 L 358.261719 312.53125 L 358.191406 312.460938 C 335.929688 351.191406 294.667969 375.074219 249.996094 375.089844 C 205.320312 375.105469 164.046875 351.25 141.757812 312.53125 Z M 141.757812 312.53125 "/>
</g>
</svg>
